<?xml version="1.0" standalone="no"?>
<!DOCTYPE svg PUBLIC "-//W3C//DTD SVG 1.1//EN" "http://www.w3.org/Graphics/SVG/1.1/DTD/svg11.dtd" >
<svg xmlns="http://www.w3.org/2000/svg">
<metadata>
Created by FontForge 20120731 at Wed Aug 12 15:39:24 2015
 By Ads
</metadata>
<defs>
<font id="iconfont" horiz-adv-x="1024" >
  <font-face 
    font-family="iconfont"
    font-weight="500"
    font-stretch="normal"
    units-per-em="1024"
    panose-1="2 0 6 3 0 0 0 0 0 0"
    ascent="812"
    descent="-212"
    x-height="792"
    bbox="0 -224 1405 800"
    underline-thickness="50"
    underline-position="-100"
    unicode-range="U+0078-F1FC"
  />
<missing-glyph horiz-adv-x="374" 
d="M34 0v682h272v-682h-272zM68 34h204v614h-204v-614z" />
    <glyph glyph-name=".notdef" horiz-adv-x="374" 
d="M34 0v682h272v-682h-272zM68 34h204v614h-204v-614z" />
    <glyph glyph-name=".null" horiz-adv-x="0" 
 />
    <glyph glyph-name="nonmarkingreturn" horiz-adv-x="341" 
 />
    <glyph glyph-name="x" unicode="x" horiz-adv-x="1001" 
d="M281 543q-27 -1 -53 -1h-83q-18 0 -36.5 -6t-32.5 -18.5t-23 -32t-9 -45.5v-76h912v41q0 16 -0.5 30t-0.5 18q0 13 -5 29t-17 29.5t-31.5 22.5t-49.5 9h-133v-97h-438v97zM955 310v-52q0 -23 0.5 -52t0.5 -58t-10.5 -47.5t-26 -30t-33 -16t-31.5 -4.5q-14 -1 -29.5 -0.5
t-29.5 0.5h-32l-45 128h-439l-44 -128h-29h-34q-20 0 -45 1q-25 0 -41 9.5t-25.5 23t-13.5 29.5t-4 30v167h911zM163 247q-12 0 -21 -8.5t-9 -21.5t9 -21.5t21 -8.5q13 0 22 8.5t9 21.5t-9 21.5t-22 8.5zM316 123q-8 -26 -14 -48q-5 -19 -10.5 -37t-7.5 -25t-3 -15t1 -14.5
t9.5 -10.5t21.5 -4h37h67h81h80h64h36q23 0 34 12t2 38q-5 13 -9.5 30.5t-9.5 34.5q-5 19 -11 39h-368zM336 498v228q0 11 2.5 23t10 21.5t20.5 15.5t34 6h188q31 0 51.5 -14.5t20.5 -52.5v-227h-327z" />
    <glyph glyph-name="uniE601" unicode="&#xe601;" 
d="M924 462q-34 81 -96 142.5t-142 95.5q-84 36 -175 36q-142 0 -258 -82q-18 -13 -34.5 -27.5t-32 -31t-29.5 -33.5q-41 -54 -65 -118q-28 -75 -28 -156q0 -91 35 -174q34 -80 96 -142t142 -96q83 -35 174 -35q46 0 89.5 9t85.5 26q80 34 142 96t96 142q35 83 35 174
q0 46 -9 89.5t-26 84.5zM884 475l-207 -194v6v13l1 370q67 -29 120 -79.5t86 -115.5zM509.5 150q-56.5 0 -96.5 40t-40 96.5t40 97t97 40.5q14 0 27.5 -3t25.5 -8t23 -12.5t20.5 -17t17 -20.5t12.5 -23t8 -25.5t3 -27.5q0 -57 -40.5 -97t-97 -40zM647 682l-1 -298
q-22 30 -55 49l-238 240q76 32 158 32q36 0 70 -6t66 -17zM323 659l205 -206q-2 0 -4.5 0.5t-4.5 0.5h-5h-4h-4h-3h-374q58 133 188 202q3 2 6 3zM95 288q0 70 22 136h296q-6 -5 -11.5 -9.5t-10.5 -10t-10 -10.5l-262 -246q-24 68 -24 140zM131 118l214 200q-3 -16 -3 -31
q0 -9 1 -18t3 -18h-1l-1 -344q-28 12 -54 28.5t-49 36.5t-43.5 43t-37 49t-29.5 54zM375 -105l1 290q23 -30 57 -48l235 -235q-75 -30 -157 -30q-70 0 -136 23zM698 -84l-204 204q4 -1 8 -1h8q36 0 69 15l319 -1q-29 -71 -80.5 -127t-119.5 -90zM909 163l-285 1q30 28 44 66
l229 215q31 -75 31 -157q0 -64 -19 -125z" />
    <glyph glyph-name="uniE602" unicode="&#xe602;" 
d="M464 -98.5q0 -14.5 -10 -24.5t-24 -10h-265q-29 0 -49.5 20.5t-20.5 49.5v697q0 19 9.5 35.5t25.5 26t35 9.5h698q29 0 49.5 -21t20.5 -50v-234q0 -14 -10.5 -24t-25 -10t-24.5 10t-10 24v234v1h-698v-1v-697h265q14 0 24 -10.5t10 -25zM953 55l1 -140q0 -22 -16 -38
t-38 -16h-324q-23 0 -38.5 15.5t-15.5 38.5v146q-30 30 -30 73q0 16 5 32q0 2 1 3v1l43 102q7 18 22.5 28.5t36.5 10.5h283q21 0 37 -11t23 -29l40 -100q1 -3 1 -5q5 -16 5 -32q0 -47 -36 -79zM899 -85v116q-7 -1 -14 -1q-21 0 -39.5 7.5t-33.5 21.5q-7 -7 -15.5 -12
t-17.5 -9t-18.5 -6t-19.5 -2q-21 0 -39.5 7.5t-32.5 21.5q-10 -9 -21.5 -15.5t-24.5 -10t-26 -3.5q-11 0 -21 2v-117h323zM935 134q0 8 -3 16v1l-1 2l-39 99h-1q-1 4 -9 4h-282q-6 0 -8 -3v-1l-42 -100q-1 -1 -1 -2l-2 -8q-1 -4 -1 -8q0 -30 26 -44l1 -1q9 -5 24 -5
q27 0 42 24q2 5 6 9q8 10 24 10q15 0 24 -11q3 -3 6 -8q14 -23 42 -23q27 0 41 23q1 1 1.5 2.5t2 3t2.5 3.5q4 5 10.5 7.5t13.5 2.5q15 0 24 -10q2 -2 3.5 -4.5t2.5 -4.5q15 -23 43 -23q4 0 8.5 0.5t8 1.5t7.5 3q26 14 26 44zM260 516q-14 0 -24.5 -10t-10.5 -24.5t10.5 -25
t24.5 -10.5h460q15 0 25 10.5t10 25t-10 24.5t-25 10h-460zM430 316h-170q-14 0 -24.5 -10.5t-10.5 -25t10.5 -24.5t24.5 -10h170q14 0 24 10t10 24.5t-10 25t-24 10.5zM430 115h-170q-14 0 -24.5 -10t-10.5 -24.5t10.5 -25t24.5 -10.5h170q9 0 17 5t12.5 13t4.5 17
q0 15 -10 25t-24 10z" />
    <glyph glyph-name="uniE603" unicode="&#xe603;" 
d="M941 375q0 13 -2 26.5t-6 25.5v1l-1 3q-1 1 -1 2l-72 180q-10 28 -34.5 44.5t-56.5 16.5h-508q-31 0 -54.5 -16t-32.5 -43l-78 -183q-1 -2 -1 -5q-3 -8 -5 -17t-3 -18t-1 -18q0 -17 3.5 -34.5t10.5 -33t17 -29.5t22 -26v-270q0 -21 11 -39.5t29 -29t40 -10.5l580 1
q33 0 56 23t23 56v260q30 24 47 59t17 74zM798 -36h-580q-8 0 -13 5t-5 12v233q8 -3 17 -4.5t18.5 -2.5t19.5 -1q79 0 130 61q50 -60 128 -61q79 1 129 61q50 -61 129 -61q24 1 44 6v-230q0 -7 -5 -12.5t-12 -5.5zM823 280q-21 -12 -52 -12q-60 0 -91 52q-4 8 -9 13
q-4 5 -11.5 8.5t-17.5 3.5q-9 0 -17 -3.5t-13 -9.5q-4 -4 -8 -12q-15 -24 -39 -38t-52 -14t-52 14t-39 38q-4 7 -7 11q-11 13 -30.5 13t-29.5 -11q-2 -3 -4 -5.5t-2.5 -4.5t-1.5 -4q-32 -51 -92 -51q-10 0 -19 1t-17 3.5t-15 6.5v0q-17 9 -30 24t-20 33t-7 38q0 6 0.5 12
t2 12t3.5 11q0 2 1 3l76 181q7 19 30 19h508q26 -2 33 -20l71 -179q1 0 1 -1v-2q6 -17 6 -35q0 -30 -15 -55.5t-41 -39.5z" />
    <glyph glyph-name="uniF002" unicode="&#xf002;" 
d="M950 -110l-231 227q98 106 98 248q0 101 -50.5 186.5t-137 135t-188.5 49.5q-77 0 -146.5 -29.5t-120 -79t-80.5 -118t-30 -144.5q0 -100 50.5 -185.5t137 -135t189.5 -49.5q133 0 236 83l232 -228q9 -8 21 -8t20.5 8t8.5 20t-9 20zM440.5 52q-131.5 0 -225 92
t-93.5 221.5t93.5 221.5t225 92t225 -92t93.5 -221.5t-93.5 -221.5t-225 -92z" />
    <glyph glyph-name="uniF003" unicode="&#xf003;" 
d="M860 639h-667q-46 0 -78.5 -33t-32.5 -79v-444q0 -46 32.5 -79t78.5 -33h667q46 0 79 33t33 79v444q0 46 -33 79t-79 33zM888 583l-361 -278l-362 278h723zM138 83v444l250 -194l-248 -266q-1 4 -1.5 8t-0.5 8zM181 29l251 267l95 -72l91 72l255 -267q-3 -1 -346 -1
t-346 1zM916 83q0 -8 -3 -16l-247 266l250 194v-444z" />
    <glyph glyph-name="uniF005" unicode="&#xf005;" 
d="M895 394h-1v0v1v1q-2 5 -6.5 9.5t-10.5 6.5l-213 68l-130 181q-8 10 -21 11h-1h-1q-6 0 -11.5 -3t-9.5 -8l-130 -181l-213 -68q-6 -2 -10.5 -6.5t-6.5 -9.5l-1 -1v-1v0q-4 -13 4 -23l132 -180l-1 -223q0 -7 2.5 -12.5t7.5 -9.5q1 0 1 -0.5t1 -0.5q11 -7 23 -3l213 70
l212 -70q13 -4 24 3v1h1q10 8 10 22v223l131 180q4 5 5 11t0 12z" />
    <glyph glyph-name="uniF006" unicode="&#xf006;" 
d="M895 394h-1v0v1v1q-2 5 -6.5 9.5t-10.5 6.5l-213 68l-130 181q-8 10 -21 11h-1h-1q-6 0 -11.5 -3t-9.5 -8l-130 -181l-213 -68q-6 -2 -10.5 -6.5t-6.5 -9.5l-1 -1v-1v0q-4 -13 4 -23l132 -180l-1 -223q0 -7 2.5 -12.5t7.5 -9.5q1 0 1 -0.5t1 -0.5q11 -7 23 -3l213 70
l212 -70q13 -4 24 3v1h1q10 8 10 22v223l131 180q4 5 5 11t0 12zM710 216q0 -1 -1 -1q-5 -7 -4 -16v-194l-183 60q-2 1 -3.5 1.5t-3.5 0.5h-3q-6 0 -11 -2l-183 -60l1 194q0 9 -5 16v1h-1l-114 156l182 58q11 2 18 11l113 158l113 -157q1 -2 3 -3q5 -6 12 -8l184 -59z" />
    <glyph glyph-name="uniF007" unicode="&#xf007;" 
d="M199 -119h-70v9v14v9q0 126 60 224q47 76 122 120q-6 7 -12 15t-11 16t-10 16.5t-9 18.5q-25 58 -25 133q0 56 21.5 107t61.5 89q82 80 198 80q23 0 45 -3.5t42.5 -10t40 -16t37.5 -22t34 -28.5q82 -80 82 -196q0 -75 -26 -134q-17 -37 -43 -65q76 -44 123 -120
q62 -98 62 -224q0 -22 -1 -32h-70q0 4 0.5 15t0.5 17q0 106 -51 187q-42 66 -140 119l-40 23l34 33q18 16 29.5 29t25 34.5t20 51t6.5 66.5q0 87 -61 146q-30 29 -68.5 44.5t-81 15.5t-81.5 -15.5t-68 -44.5q-62 -59 -62 -146q0 -61 20 -105q9 -22 24 -41t36 -37l30 -31
l-37 -20q-95 -52 -138 -122q-25 -40 -37.5 -87.5t-12.5 -99.5v-32z" />
    <glyph glyph-name="uniF009" unicode="&#xf009;" 
d="M319 228h-127q-35 0 -64.5 -17t-46.5 -46.5t-17 -64.5v-127q0 -53 37.5 -90.5t90.5 -37.5h127q35 0 64.5 17t46.5 46.5t17 64.5v127q0 26 -10 49.5t-27 41t-41 27.5t-50 10zM383 -27q0 -27 -18.5 -45.5t-45.5 -18.5h-127q-27 0 -45.5 18.5t-18.5 45.5v127q0 13 5 25
t13.5 20.5t20.5 13.5t25 5h127q27 0 45.5 -18.5t18.5 -45.5v-127zM830 738h-128q-53 0 -90.5 -37.5t-37.5 -90.5v-127q0 -53 37.5 -90.5t90.5 -37.5h128q17 0 33.5 5t30.5 13t25.5 20t20 25.5t13 30.5t4.5 34v127q0 53 -37.5 90.5t-89.5 37.5zM893 483q0 -27 -18.5 -45.5
t-44.5 -18.5h-128q-26 0 -45 18.5t-19 45.5v127q0 27 19 45.5t45 18.5h128q26 0 44.5 -18.5t18.5 -45.5v-127zM319 738h-127q-53 0 -90.5 -37.5t-37.5 -90.5v-127q0 -53 37.5 -90.5t90.5 -37.5h127q26 0 50 10.5t41 27.5t27 40.5t10 49.5v127q0 53 -37.5 90.5t-90.5 37.5z
M383 483q0 -27 -18.5 -45.5t-45.5 -18.5h-127q-27 0 -45.5 18.5t-18.5 45.5v127q0 27 18.5 45.5t45.5 18.5h127q27 0 45.5 -18.5t18.5 -45.5v-127zM830 228h-128q-53 0 -90.5 -37.5t-37.5 -90.5v-127q0 -53 37.5 -90.5t90.5 -37.5h128q52 0 89.5 37.5t37.5 90.5v127
q0 66 -53 104q-34 23 -74 24zM893 -27q0 -27 -18.5 -45.5t-44.5 -18.5h-128q-26 0 -45 18.5t-19 45.5v127q0 27 19 45.5t45 18.5h128q26 0 44.5 -18.5t18.5 -45.5v-127z" />
    <glyph glyph-name="uniF00B" unicode="&#xf00b;" 
d="M873 44zM349 645h-193q-22 0 -37.5 -15.5t-15.5 -36.5v-194q0 -15 7 -27t19 -19t27 -7h193q22 0 37.5 15.5t15.5 37.5v194q0 14 -7 26t-19 19t-27 7zM352 593v-194q0 -3 -3 -3h-193q-1 0 -2 1t-1 2v194q0 2 3 2h193q1 0 2 -0.5t1 -1.5zM349 230h-193q-22 0 -37.5 -15.5
t-15.5 -37.5v-194q0 -7 2 -13.5t5 -12.5t8 -11t11 -8.5t12.5 -5t14.5 -1.5h193q22 0 37.5 15.5t15.5 36.5v194q0 22 -15.5 37.5t-37.5 15.5zM352 177v-194q0 -2 -3 -2h-193q-3 0 -3 2v194q0 3 3 3h193q3 0 3 -3zM520 575q1 -1 2 -1h2h2h367h1h1h1q1 0 2 1q6 1 11 4.5
t7.5 8.5t2.5 11t-2.5 11.5t-7 9t-10.5 4.5q-1 1 -3 1h-374q-1 0 -2 -1q-9 -2 -14.5 -9t-5.5 -16q0 -4 1.5 -8t4 -7.5t6.5 -5.5t8 -3zM520 389q1 -2 2 -2h374q1 0 3 1q3 1 6 2.5t5.5 4t4.5 5t3 6t1 7t-1 7t-3 6.5t-4.5 5t-5.5 4t-7 2q-1 1 -2 1h-1h-2h-367h-2h-2q-1 0 -2 -1
q-4 -1 -8 -3t-6.5 -5.5t-4 -7.5t-1.5 -8q0 -9 5.5 -16t14.5 -8zM520 139q1 -1 2 -1h374h1q10 1 17 8t7 18q0 10 -7 17.5t-18 7.5h-1h-369h-2h-2q-1 0 -2 -1q-9 -2 -14.5 -9t-5.5 -15.5t5.5 -15.5t14.5 -9zM898 22q-1 0 -1 0.5t-1 0.5h-374l-1 -1q-1 0 -1 -1q-9 -1 -14.5 -8
t-5.5 -16q0 -6 2.5 -11t7 -8.5t10.5 -4.5q1 -1 2 -1h1h3h368h2q5 0 10 2t8 5.5t5 8t2 9.5q0 10 -6.5 17.5t-16.5 7.5z" />
    <glyph glyph-name="uniF00C" unicode="&#xf00c;" 
d="M62 274l322 -322l578 577l-96 95l-479 -478l-226 226z" />
    <glyph glyph-name="uniF00D" unicode="&#xf00d;" 
d="M555 288l400 -400l-43 -43l-400 400l-400 -400l-43 43l400 400l-400 400l43 43l400 -400l400 400l43 -43z" />
    <glyph glyph-name="uniF013" unicode="&#xf013;" 
d="M943 200l-69 41q6 35 6 64q0 9 -0.5 17t-1 16.5t-2 16t-2.5 15.5l69 41q21 12 27.5 35.5t-5.5 45.5l-59 103q-13 21 -36.5 27.5t-44.5 -6.5l-70 -40q-51 44 -110 65v51q0 24 -17.5 41.5t-41.5 17.5h-118q-25 0 -42 -17.5t-17 -41.5v-51q-59 -21 -111 -65l-69 40
q-15 8 -30 8t-29 -7.5t-22 -21.5l-59 -103q-12 -22 -5.5 -45.5t27.5 -35.5l69 -41q-7 -35 -7 -65t7 -64l-69 -41q-21 -12 -27.5 -35.5t5.5 -45.5l59 -103q8 -14 22 -22t29 -7.5t30 8.5l69 40q52 -44 111 -65v-51q0 -24 17 -41.5t42 -17.5h118q24 0 41.5 17.5t17.5 41.5v51
q59 21 110 65l70 -40q21 -13 44.5 -6.5t36.5 27.5l59 103q12 22 5.5 45.5t-27.5 35.5zM899 123l-30 -51q-6 -11 -17.5 -14t-22.5 3l-82 48q-31 -36 -72.5 -60.5t-88.5 -34.5v-65q0 -8 -4 -15t-11 -11t-15 -4h-59q-12 0 -20.5 9t-8.5 21v65q-96 20 -162 95l-81 -48
q-11 -6 -23 -3t-18 14l-29 51q-3 5 -4 11t0.5 11.5t5 10.5t9.5 8l82 48q-16 47 -16 93.5t16 93.5l-82 48q-11 6 -14 18t3 23l29 51q6 11 18 14t23 -3l81 -48q66 75 162 95v65q0 12 8.5 21t20.5 9h59q12 0 21 -9t9 -21v-65q96 -20 161 -95l82 48q7 4 14.5 4t14.5 -4t11 -11
l30 -51q6 -11 3 -23t-14 -18l-82 -48q15 -47 15 -93.5t-15 -93.5l82 -48q11 -6 14 -18t-3 -23zM527 454q-61 0 -104.5 -43.5t-43.5 -105t43.5 -105t104.5 -43.5q17 0 33.5 4t31 11t27.5 17.5t23 23t17 27.5t11 31.5t4 33.5q0 62 -43 105.5t-104 43.5zM527 216q-18 0 -34.5 7
t-28.5 19t-19 28.5t-7 35t7 35t19 28t28.5 19t34.5 7.5q36 0 62 -26.5t26 -63t-26 -63t-62 -26.5z" />
    <glyph glyph-name="uniF015" unicode="&#xf015;" 
d="M958 255q-13 -31 -52 -34v-1h-56v-281q0 -46 -33 -79t-79 -33h-113v281q0 35 -31 50q-13 6 -25 6h-112q-16 0 -28.5 -7.5t-20 -20.5t-7.5 -28v-281h-113q-46 0 -79 33t-33 79v225v0v56h-55h1v1q-41 2 -55 34q-3 6 -4 13.5t0.5 18.5t8.5 24t19 26l342 355q15 16 36 25
t43 9q16 0 30 -4t27 -11.5t23 -18.5l341 -355q17 -17 23.5 -34.5t6 -28t-4.5 -19.5zM892 298l-341 355q-17 17 -38 17q-4 0 -8.5 -1t-8.5 -2.5t-8 -3.5t-7.5 -4.5t-6.5 -5.5l-341 -355q-1 -2 -11 -18l2 -1l1 -3h51v0h2q23 0 39.5 -16t16.5 -40v-2l-2 -4v-2v-273
q0 -15 7.5 -28t20.5 -20.5t28 -7.5h56v225q0 46 33 79t80 33h112q47 0 79.5 -33t32.5 -79v-225h57q23 0 39.5 16.5t16.5 39.5v281q0 16 7.5 28.5t20.5 20t28 7.5h50l1 2q1 2 2 2q-10 16 -11 18z" />
    <glyph glyph-name="uniF017" unicode="&#xf017;" 
d="M512 -122q-83 0 -159 33q-74 30 -130.5 87t-87.5 130q-33 77 -33 160q0 111 55 205.5t149.5 149.5t205.5 55q83 0 159 -33q37 -15 69.5 -37t60.5 -51q57 -57 88 -130q33 -76 33 -159q0 -111 -55 -205.5t-149.5 -149.5t-205.5 -55v0zM831 422q-26 63 -74 111t-110 74
q-65 28 -135 28t-134.5 -27.5t-111 -74t-74 -111t-27.5 -134.5q0 -144 101.5 -245.5t245.5 -101.5q94 0 174 46.5t126.5 126.5t46.5 174q0 70 -28 134v0zM780 257h-300v307q0 13 9.5 22t22.5 9t22 -9t9 -22v-244h237q5 0 9 -1t7.5 -3t6.5 -5t5 -6.5t3 -7.5t1 -8
q0 -7 -2.5 -12.5t-6.5 -10t-10 -7t-13 -2.5z" />
    <glyph glyph-name="uniF021" unicode="&#xf021;" 
d="M802 215h217l-145 217l-144 -217h72zM223 360h-217l144 -217l145 217h-72zM512 -38q-58 0 -124.5 26t-92.5 64l-72 -72q37 -37 82.5 -65t100 -45t106.5 -17q124 0 224.5 59.5t155.5 159t55 216.5h-109q0 -136 -95 -231t-231 -95zM512 613q28 0 60 -6.5t62.5 -18t56 -28.5
t39.5 -37l72 72q-37 37 -83 65.5t-100 45t-107 16.5q-123 0 -223.5 -59.5t-155.5 -158.5t-55 -216h109q0 135 95 230t230 95z" />
    <glyph glyph-name="uniF029" unicode="&#xf029;" 
d="M704 -32h64v-64h-64v64zM832 -32h64v-64h-64v64zM832 160h-64v96h-224v-352h64v192h79v-64h209v224h-64v-96zM272 528h64v-64h-64v64zM448 256h-288q-13 0 -22.5 -9.5t-9.5 -22.5v-288q0 -5 1.5 -10t4.5 -9t7 -7t9 -4.5t10 -1.5h288q9 0 16 4.5t11.5 11.5t4.5 16v288
q0 13 -9.5 22.5t-22.5 9.5zM416 -16q0 -4 -2 -8t-6 -6t-8 -2h-192q-7 0 -11.5 4.5t-4.5 11.5v192q0 7 4.5 11.5t11.5 4.5h192q7 0 11.5 -4.5t4.5 -11.5v-192zM272 112h64v-64h-64v64zM448 672h-288q-13 0 -22.5 -9.5t-9.5 -22.5v-288q0 -9 4.5 -16t11.5 -11.5t16 -4.5h288
q13 0 22.5 9.5t9.5 22.5v288q0 13 -9.5 22.5t-22.5 9.5zM416 400q0 -3 -1.5 -6t-3.5 -5t-5 -3.5t-6 -1.5h-192q-7 0 -11.5 4.5t-4.5 11.5v192q0 7 4.5 11.5t11.5 4.5h192q3 0 5 -1t4 -2.5t3.5 -3.5t2.5 -4t1 -5v-192zM864 672h-288q-13 0 -22.5 -9.5t-9.5 -22.5v-288
q0 -9 4.5 -16t11.5 -11.5t16 -4.5h288q13 0 22.5 9.5t9.5 22.5v288q0 9 -4.5 16t-11.5 11.5t-16 4.5zM832 400q0 -3 -1.5 -6t-3.5 -5t-5 -3.5t-6 -1.5h-192q-2 0 -4 0.5t-4 1.5t-3.5 2.5t-2.5 3.5t-1.5 4t-0.5 4v192q0 7 4.5 11.5t11.5 4.5h192q3 0 5 -1t4 -2.5t3.5 -3.5
t2.5 -4t1 -5v-192zM688 528h64v-64h-64v64z" />
    <glyph glyph-name="uniF041" unicode="&#xf041;" 
d="M512 500q-64 0 -109 -45t-45 -109q0 -41 21 -76.5t56 -56t77 -20.5q64 0 109 45t45 108.5t-45 108.5t-109 45zM512 244q-28 0 -51.5 13.5t-37 37.5t-13.5 51q0 43 30 73t72 30t72 -30t30 -73q0 -27 -13.5 -51t-37 -37.5t-51.5 -13.5zM512 698q22 0 43.5 -3t42.5 -9
t42 -14q58 -25 104 -70q22 -23 40 -49t30 -56q26 -60 26 -127q0 -29 -14 -66q-13 -37 -38 -81q-45 -77 -125 -169q-68 -79 -151 -157q-82 78 -151 157q-80 92 -124 169q-26 44 -39 81q-5 12 -8 23.5t-4.5 22t-1.5 20.5q0 67 26 127q25 59 70 105q9 9 19 17t20 15.5t20.5 14
t22 12.5t22.5 11q61 26 128 26zM512 749q-103 0 -190 -51t-138 -138t-51 -190q0 -43 21 -96t54.5 -103.5t74 -102t80.5 -94t73.5 -76t54.5 -52.5l21 -19q8 7 21.5 19.5t53 51.5t75 77.5t79.5 92.5t75.5 103t53 102.5t21.5 96.5q0 103 -51 190t-138 138t-190 51z" />
    <glyph glyph-name="uniF044" unicode="&#xf044;" 
d="M358 245q-1 -1 -1 -2l-41 -151q-4 -14 6 -24q8 -8 18 -8q2 0 3.5 0.5t3.5 0.5l150 41v0q3 0 5 2l400 400q18 18 18 45q0 15 -6 29.5t-17 25.5l-38 38q-23 23 -54 23q-14 0 -25.5 -4.5t-20.5 -13.5l-400 -400l-1 -1v-1zM863 543l-40 -40l-64 66l39 39q3 3 7.5 3.5t9.5 -1
t8 -4.5l38 -38q6 -6 6 -14q0 -7 -4 -11zM429 239l289 289l64 -66l-288 -288zM377 122l21 77l55 -56zM888.5 384q-11.5 0 -19.5 -8t-8 -19v-373q0 -10 -5 -18t-13 -13t-18 -5h-631q-14 0 -24.5 10.5t-10.5 25.5v608q0 6 1.5 11.5t5 10t8 7.5t9.5 5t11 2h407q11 0 19 8t8 19.5
t-8 19.5t-19 8h-411q-36 0 -61 -25.5t-25 -60.5v-618q0 -23 11.5 -43t31.5 -31.5t43 -11.5h639q36 0 61.5 25.5t25.5 60.5v378q0 11 -8 19t-19.5 8z" />
    <glyph glyph-name="uniF045" unicode="&#xf045;" 
d="M810 -1q0 -17 -12.5 -29.5t-29.5 -12.5h-576q-18 0 -30.5 12.5t-12.5 29.5v534q0 17 12.5 29.5t30.5 12.5h277v64h-320q-7 0 -14.5 -1.5t-13.5 -4.5t-12 -7.5t-10 -10t-7.5 -12t-5 -13.5t-1.5 -15v-618q0 -27 19 -45.5t45 -18.5h661q27 0 45.5 18.5t18.5 45.5v213h-64
v-171zM930 523l-173 172q-6 6 -14 8t-16.5 0t-14.5 -8t-8 -14.5t0 -16.5t8 -14l99 -99q-167 3 -308 -101.5t-196 -267.5l59 -29q32 96 106 176t174 123t199 32l-132 -132q-4 -4 -6 -8.5t-3 -9t0 -9.5t3 -9.5t6 -8.5q9 -9 22 -9t23 9l167 167l2 2q2 1 3 1q9 10 9 23t-9 23z
" />
    <glyph glyph-name="uniF053" unicode="&#xf053;" 
d="M758 634l-346 -345l346 -346q9 -9 9 -20.5t-9 -19.5l-44 -44q-9 -9 -20 -9q-5 0 -10.5 2.5t-9.5 6.5l-410 409q-2 2 -3.5 4t-2.5 4t-1.5 4t-1 4.5t-0.5 4.5q0 11 9 20l410 410q8 9 19.5 9t20.5 -9l44 -44q9 -9 9 -20q0 -2 -0.5 -4t-1 -3.5t-1 -3.5t-1.5 -3.5t-2.5 -3
t-2.5 -3.5z" />
    <glyph glyph-name="uniF054" unicode="&#xf054;" 
d="M255 654.5q0 11.5 9 20.5l44 44q8 9 19.5 9t20.5 -9l410 -410q9 -9 9 -20.5t-9 -20.5l-410 -409q-9 -9 -20.5 -9t-19.5 9l-44 44q-9 8 -9 20q0 5 2.5 10.5t6.5 9.5l345 346l-345 345q-9 9 -9 20.5z" />
    <glyph glyph-name="uniF05C" unicode="&#xf05c;" 
d="M512 -208q-205 0 -350.5 145.5t-145.5 350.5t145.5 350.5t350.5 145.5t350.5 -145.5t145.5 -350.5t-145.5 -350.5t-350.5 -145.5zM512 722q-180 0 -307 -127t-127 -307t127 -307t307 -127t307 127t127 307t-127 307t-307 127zM720 80q-4 -4 -10 -6.5t-11.5 -2.5t-11 2.5
t-10.5 6.5l-165 165l-165 -165q-5 -4 -10.5 -6.5t-11 -2.5t-11.5 2.5t-10.5 6.5t-6.5 10t-2 11.5t2 11t7 10.5l165 165l-165 165q-4 5 -6.5 10.5t-2.5 11t2.5 11.5t6.5 10.5t10 6.5t11.5 2t11 -2t10.5 -7l165 -165l165 165q4 4 8.5 6t9 2.5t9 0t9 -2.5t7.5 -6q9 -9 9 -21.5
t-9 -21.5l-165 -165l165 -165q17 -17 4 -38q-2 -3 -4 -5z" />
    <glyph glyph-name="uniF067" unicode="&#xf067;" 
d="M982 248h-940q-17 0 -28.5 11.5t-11.5 28.5t11.5 28.5t28.5 11.5h940q17 0 28.5 -11.5t11.5 -28.5q0 -8 -3 -15.5t-8.5 -13t-12.5 -8.5t-16 -3zM512 -222q-17 0 -28.5 11.5t-11.5 28.5v940q0 17 11.5 28.5t28.5 11.5q11 0 20 -5t14.5 -14.5t5.5 -20.5v-940q0 -9 -3 -16
t-8.5 -12.5t-13 -8.5t-15.5 -3z" />
    <glyph glyph-name="uniF068" unicode="&#xf068;" 
d="M82 328h860q8 0 14 -6t6 -14v-40q0 -8 -6 -14t-14 -6h-860q-8 0 -14 6t-6 14v40q0 8 6 14t14 6z" />
    <glyph glyph-name="uniF06A" unicode="&#xf06a;" horiz-adv-x="1025" 
d="M512 800q-104 0 -199 -40.5t-163.5 -109t-109 -163.5t-40.5 -199t40.5 -199t109 -163.5t163.5 -109t199 -40.5t199 40.5t163.5 109t109 163.5t40.5 199t-40.5 199t-109 163.5t-163.5 109t-199 40.5zM438 614h150l-22 -428h-106zM512 112q35 0 56 -20q20 -19 20 -56
q0 -34 -20 -54t-56 -20q-35 0 -56 20q-20 19 -20 54q0 37 20 56q21 20 56 20z" />
    <glyph glyph-name="uniF06B" unicode="&#xf06b;" 
d="M512.5 -191q-11.5 0 -20 8.5t-8.5 20.5v666q0 12 8.5 20.5t20 8.5t20 -8.5t8.5 -20.5v-666q0 -12 -8.5 -20.5t-20 -8.5zM538 498h-285l-8 8q-12 12 -22 26t-17 28.5t-12 30t-6.5 32t-0.5 32.5q4 61 40 90q7 5 15 9t16.5 6.5t18.5 4t20 1.5q26 0 54.5 -9t55.5 -26t51 -40
q66 -66 77 -161zM278 556h193q-15 55 -54 94q-59 58 -120 58q-7 0 -13.5 -1t-11.5 -3t-9 -5q-6 -5 -11.5 -17.5t-7.5 -30.5q-3 -52 34 -95zM759 498h-285l3 32q11 95 78 161q35 35 78 55t83 20q41 0 69 -21q37 -29 41 -90q5 -85 -58 -149zM541 556h194q36 42 33 95
q-1 12 -4 22.5t-7 16.5t-8 9q-12 9 -33 9q-62 0 -121 -58q-4 -5 -8 -9.5t-7.5 -9t-7.5 -9.5l-6 -10q-4 -5 -7 -10.5t-5.5 -11t-4.5 -11.5t-4 -11.5t-4 -11.5zM816 -191h-607q-50 0 -84.5 35.5t-34.5 85.5v442h845v-442q0 -50 -34.5 -85.5t-84.5 -35.5zM148 314v-384
q0 -17 8 -31.5t22 -23t31 -8.5h607q26 0 43.5 18.5t17.5 44.5v384h-729zM956 314h-887q-28 0 -48 20t-20 48v106q0 18 9.5 34t25 25t33.5 9h887q28 0 47.5 -20t19.5 -48v-106q0 -28 -19.5 -48t-47.5 -20zM69 498q-4 0 -7 -3t-3 -7v-106q0 -3 1.5 -5t3.5 -3.5t5 -1.5h887
q4 0 7 3t3 7v106q0 4 -3 7t-7 3h-887z" />
    <glyph glyph-name="uniF077" unicode="&#xf077;" 
d="M951 103.5q0 -11.5 -9 -20.5l-44 -44q-4 -4 -10 -6.5t-11 -2.5h-3q-2 0 -4 0.5t-3.5 1.5t-3.5 2t-3.5 2t-2.5 3l-347 347l-348 -347q-8 -9 -19.5 -9t-20.5 9l-44 44q-9 9 -9 20.5t9 19.5l411 412q9 9 21 9q5 0 10.5 -2.5t9.5 -6.5l412 -412q9 -8 9 -19.5z" />
    <glyph glyph-name="uniF078" unicode="&#xf078;" 
d="M942 450l-412 -411q-9 -9 -20.5 -9t-20.5 9l-411 411q-9 9 -9 20.5t9 20.5l44 44q9 9 20 9q5 0 10.5 -2.5t9.5 -6.5l348 -347l347 347q4 4 9.5 6.5t10.5 2.5q4 0 7.5 -1t7 -3t6.5 -5l44 -44q9 -9 9 -20.5t-9 -20.5z" />
    <glyph glyph-name="uniF07A" unicode="&#xf07a;" 
d="M353 -32q-27 0 -45.5 -18.5t-18.5 -45.5t18.5 -45.5t45 -18.5t45.5 18.5t19 45.5t-19 45.5t-45 18.5zM801 -32q-27 0 -45.5 -18.5t-18.5 -45.5t18.5 -45.5t45 -18.5t45.5 18.5t19 45.5t-19 45.5t-45 18.5zM864 0h-520q-34 0 -61 24t-31 59l-54 382l-31 179l-2 6
q-1 3 -2.5 6t-4 5.5t-5 4.5t-5 3.5t-5.5 2t-6 0.5h-41q-13 0 -22.5 9.5t-9.5 22.5t9.5 22.5t22.5 9.5h41q14 0 27 -4t24 -11.5t20 -18t14.5 -23t7.5 -26.5l31 -178l54 -384q1 -7 5.5 -13.5t11 -10t12.5 -3.5h520q13 0 22.5 -9.5t9.5 -22.5t-9.5 -22.5t-22.5 -9.5zM384 128
q-12 0 -21.5 8.5t-10.5 21.5q0 8 3.5 16t10.5 12.5t16 5.5l434 32q8 0 15 3.5t11 10t5 13.5l51 288q1 8 -1.5 16.5t-7.5 13.5q-2 2 -4 3.5t-5 2.5t-6 1h-554q-13 0 -22.5 9.5t-9.5 22.5t9.5 22.5t22.5 9.5h554q38 0 63 -29q30 -33 24 -81l-51 -289q-4 -33 -30.5 -57
t-61.5 -24l-431 -32h-3z" />
    <glyph glyph-name="uniF093" unicode="&#xf093;" 
d="M512 755q18 0 30 -12l214 -213q12 -13 12 -31t-12 -30t-31 -12q-18 0 -30 12l-140 141v-495q0 -17 -12.5 -29.5t-30.5 -12.5t-30.5 12.5t-12.5 29.5v495l-140 -141q-13 -12 -30 -12q-18 0 -30.5 12.5t-12.5 29.5q0 18 12 31l214 213q12 12 30 12zM939 158
q17 0 29.5 -12.5t12.5 -30.5v-170q0 -54 -37 -91t-90 -37h-683q-53 0 -91 37q-37 38 -37 91v170q0 18 12.5 30.5t30 12.5t30 -12.5t12.5 -30.5v-170q0 -18 12.5 -30.5t30.5 -12.5h683q18 0 30 12.5t12 30.5v170q0 18 12.5 30.5t30.5 12.5z" />
    <glyph glyph-name="uniF095" unicode="&#xf095;" 
d="M635 -160q-99 0 -208 84.5t-187 221.5q-66 117 -88.5 233.5t2.5 204.5t93 127q45 26 102 23q4 1 8 1h1h1q45 0 82 -51t47 -127q4 -33 1.5 -63t-11.5 -55t-23 -42q-12 -13 -26.5 -20.5t-30.5 -7.5l-3 -2q-3 -3 -1 -16q10 -23 21 -46t24 -46q9 -16 19 -31.5t20.5 -31
t21.5 -29.5q0 -1 1 -1q2 -3 4 -3.5t3 -0.5q6 0 13 4q11 15 28.5 23t39.5 8q30 0 64.5 -14t66.5 -39q59 -47 82 -103t1 -97q-4 -7 -5 -9q-16 -24 -33 -42t-38 -30q-41 -23 -92 -23v0zM589 147q-21 0 -28 -12q-2 -3 -5 -5q-21 -19 -48 -19q-12 0 -23 5t-19 14q-2 1 -4 3
q-37 48 -67 102q-28 49 -49 100q0 2 -1 4q-8 38 11 60q16 20 41 20q11 1 20 11q14 17 20 50t1 71q-7 55 -31.5 94.5t-48.5 39.5q-1 0 -3 -1h-6q-44 3 -77 -17q-54 -30 -71.5 -108.5t4.5 -182.5t79 -205q70 -124 168.5 -202.5t182.5 -78.5q10 0 18.5 1t17 3t16.5 5.5t15 7.5
q33 19 55 56q3 5 4 8q11 20 -9 60t-63 73q-17 13 -34.5 23t-34 15t-31.5 5v0zM669 316q-2 0 -5 1q-10 2 -16 10.5t-4 18.5q1 8 -0.5 15t-5.5 13.5t-10.5 10.5t-13.5 5q-11 2 -17 10.5t-4 19.5q1 5 4 9t7 7t9 4t10 0q36 -6 57 -37q10 -14 13.5 -31t0.5 -35q-1 -4 -3.5 -8
t-5.5 -6.5t-7.5 -4.5t-8.5 -2v0zM755 318q-2 0 -5 1q-7 1 -12 5.5t-7.5 10.5t-0.5 13q4 21 -1 41.5t-16 37t-28.5 28t-38.5 15.5q-11 2 -16.5 10.5t-4 19t10.5 16.5t19 4q63 -12 99.5 -65t25.5 -116q-2 -9 -9 -15t-16 -6v0zM853 291h-4q-11 2 -17 10.5t-4 19.5q8 42 -1 83.5
t-34 77.5q-50 74 -138 90q-7 1 -12 5.5t-7.5 10.5t-1.5 13q2 11 11 17t19 4q15 -3 29.5 -7.5t28 -10.5t26.5 -13t25 -16t23 -19t21 -21.5t18 -23.5q63 -91 43 -200q-2 -9 -9 -14.5t-16 -5.5v0zM853 291z" />
    <glyph glyph-name="uniF098" unicode="&#xf098;" 
d="M8 792zM734 116q0 6 -1 9q-2 4 -22 16.5t-50 28.5l-31 16q-2 2 -10 7.5t-14.5 8.5t-11.5 3q-11 0 -27 -18.5t-32 -37.5t-25 -19q-4 0 -9.5 2t-9 4t-9.5 5.5t-8 4.5q-56 31 -96.5 72t-71.5 97q-2 1 -5.5 7.5t-5 10t-3.5 8.5t-2 9q0 8 11.5 19.5t25.5 21.5t25.5 22.5
t11.5 20.5q0 6 -3 12t-8.5 14t-7.5 11q-1 4 -8 16.5t-14.5 25.5t-15 27t-14 23t-9.5 10t-9 1q-27 0 -57 -12q-26 -12 -45.5 -53.5t-19.5 -74.5q0 -9 1.5 -19t3 -17t5 -19t5.5 -17t7 -18.5t6 -16.5q34 -93 123 -182t182 -123q3 -1 16.5 -6t19 -7t17 -6t18.5 -5l17 -2
q11 -2 20 -2q32 0 73.5 19t53.5 45q13 30 13 58zM879 556v-544q0 -68 -48 -115.5t-115 -47.5h-545q-67 0 -115 47.5t-48 115.5v544q0 68 48 115.5t115 47.5h545q67 0 115 -47.5t48 -115.5z" />
    <glyph glyph-name="uniF0A1" unicode="&#xf0a1;" 
d="M432 713q-13 0 -25 -6t-24 -19l-158 -161h-128q-38 0 -63 -27t-25 -70v-259q0 -46 24.5 -81t63.5 -35h113l173 -169q22 -22 45 -22q14 0 25 7.5t18 21.5q10 17 10 44v710q0 23 -8 38.5t-18.5 21.5t-22.5 6zM418 -60l-174 169q-9 9 -22 9h-125q-9 0 -17 17t-8 36v259
q0 34 25 34h141q7 0 12.5 2.5t10.5 6.5l157 161v-694zM639 684q-7 0 -12.5 -2t-10 -6t-7.5 -10t-3 -12q0 -13 9 -22.5t22 -10.5q85 -3 157.5 -48.5t115 -121t42.5 -163t-42 -162t-114 -119t-159 -47.5q-13 0 -22 -9.5t-9 -22.5q1 -13 10 -22t22 -9h1q103 0 190 53.5
t136.5 143t49.5 194.5q0 78 -30 150t-80.5 125t-120 86t-145.5 35zM763 291q0 80 -54 139t-132 65q-13 1 -23 -7.5t-11 -21.5q0 -3 0.5 -6t1.5 -6t2.5 -5.5t3.5 -5t4.5 -4.5t5 -3.5t5.5 -2t7 -1.5q53 -4 90 -45t37 -96.5t-37 -96.5t-90 -45q-13 -1 -21.5 -11t-8.5 -23
q1 -8 5.5 -14.5t11.5 -10.5t15 -4h2q78 6 132 65t54 140z" />
    <glyph glyph-name="uniF0AA" unicode="&#xf0aa;" 
d="M826 245l-288 289q-4 5 -10 7t-13 2l-1 1h-2l-13 -3l-11 -7l-259 -259q-7 -6 -9 -14.5t0 -16.5t8 -14q4 -3 7.5 -5t7.5 -3.5t8 -1.5q13 0 23 10l206 206v-564q0 -13 9.5 -22.5t22.5 -9.5t22.5 9.5t9.5 22.5v565l236 -237q5 -5 11 -7.5t12 -2.5q13 0 22.5 9.5t9.5 22.5
t-9 23zM864 608h-704q-13 0 -22.5 9.5t-9.5 22.5t9.5 22.5t22.5 9.5h704q13 0 22.5 -9.5t9.5 -22.5t-9.5 -22.5t-22.5 -9.5z" />
    <glyph glyph-name="uniF0B0" unicode="&#xf0b0;" 
d="M916 565l3 3q27 32 27 73q0 46 -32 78.5t-78 32.5h-620q-45 0 -77.5 -32.5t-32.5 -78.5q0 -19 6.5 -37.5t19.5 -33.5l4 -6l245 -244v-266q0 -14 11 -23v-1h1l220 -179q9 -7 20 -7q14 0 23 11q9 10 7 23v434zM184 604q-1 2 -3 4q-6 7 -9.5 15.5t-3.5 17.5q0 13 6.5 24.5
t17.5 18t24 6.5h620q20 0 34 -14.5t14 -34.5q0 -19 -13 -33l-2 -2l-259 -260q-4 -4 -6.5 -9.5t-2.5 -12.5v-383l-158 126v265q0 7 -2 12.5t-7 9.5z" />
    <glyph glyph-name="uniF0C1" unicode="&#xf0c1;" 
d="M499 86l-160 -161q-19 -19 -44.5 -28.5t-51 -9.5t-50.5 9.5t-44 28.5q-39 39 -39 94.5t39 95.5l201 201q39 39 94.5 39t95.5 -39q5 -5 12 -8t13.5 -3t13.5 3t12 8q20 19 7 43q-4 5 -7 8q-23 24 -53 39t-61.5 19.5t-63 0t-61.5 -19.5t-54 -39l-201 -201q-60 -60 -60 -146
t60.5 -146.5t146.5 -60.5t146 60l161 161q11 11 11 26t-11 26q-3 3 -7.5 5.5t-9 4t-9 1.5t-9 -1.5t-9 -4t-8.5 -5.5zM927 703q-20 19 -43.5 32.5t-49.5 20.5t-54 7q-86 0 -146 -60l-161 -161q-11 -11 -11 -26t10.5 -26t26 -11t25.5 11l161 161q38 38 95 38t95 -38
q19 -19 29 -43.5t10 -51.5q0 -55 -39 -95l-201 -201q-39 -39 -95 -39t-95 39q-11 11 -26 11t-25.5 -10.5t-10.5 -26t10 -25.5q30 -30 68 -45.5t79 -15.5q86 0 147 61l201 201q29 29 44.5 67t15.5 79q0 86 -60 147z" />
    <glyph glyph-name="uniF0C9" unicode="&#xf0c9;" 
d="M918 236h-799q-23 0 -39 16t-16 39t16 39t39 16h799q9 0 17.5 -2.5t15.5 -8t12 -12t8 -15t3 -17.5q0 -11 -4.5 -21.5t-12 -18t-17.5 -11.5t-22 -4zM918 530h-799q-15 0 -27.5 7.5t-20 20.5t-7.5 28q0 23 16 39t39 16h799q7 0 13 -1.5t11.5 -4t10.5 -6.5t9 -8.5t6.5 -10
t4 -12t1.5 -12.5q0 -23 -16.5 -39.5t-39.5 -16.5zM119 51h799q23 0 39.5 -16t16.5 -39q0 -15 -7.5 -27.5t-20.5 -20t-28 -7.5h-799q-23 0 -39 16t-16 39q0 34 31 50q12 5 24 5z" />
    <glyph glyph-name="uniF0CA" unicode="&#xf0ca;" 
d="M114 86q-13 0 -22.5 -9.5t-9.5 -22.5q0 -6 2.5 -12t7 -10t10.5 -6.5t12 -2.5q13 0 22.5 9t9.5 22q0 7 -2.5 13t-7 10t-10 6.5t-12.5 2.5zM305 531h635q8 0 15.5 4t11.5 11.5t4 15.5q0 13 -9 22.5t-22 9.5h-635q-5 0 -9 -1t-7.5 -3t-6.5 -5t-5 -6.5t-3 -7.5t-1 -9
q0 -8 4 -15.5t11.5 -11.5t16.5 -4zM114 340q-13 0 -22.5 -9.5t-9.5 -22.5q0 -6 2.5 -12t7 -10t10.5 -6.5t12 -2.5q13 0 22.5 9t9.5 22q0 7 -2.5 13t-7 10t-10 6.5t-12.5 2.5zM940 340h-635q-14 0 -23 -9.5t-9 -22.5q0 -8 4 -15.5t11.5 -11.5t16.5 -4h635q8 0 15.5 4
t11.5 11.5t4 15.5q0 13 -9 22.5t-22 9.5zM114 594q-9 0 -16 -4t-11.5 -11.5t-4.5 -16.5q0 -13 9.5 -22t22.5 -9t22.5 9t9.5 22q0 7 -2.5 13t-7 10t-10 6.5t-12.5 2.5zM940 86h-635q-5 0 -9 -1t-7.5 -3t-6.5 -5t-5 -6.5t-3 -7.5t-1 -9q0 -8 4 -15.5t11.5 -11.5t16.5 -4h635
q8 0 15.5 4t11.5 11.5t4 15.5q0 13 -9 22.5t-22 9.5z" />
    <glyph glyph-name="uniF0D7" unicode="&#xf0d7;" 
d="M534 170v2h1l223 247q5 5 7 11.5t2 13t-2 13.5t-7 12q-10 11 -23 11h-447q-14 0 -23 -11q-10 -11 -10 -25.5t10 -24.5l224 -249q6 -6 14 -8.5t16.5 0t14.5 8.5z" />
    <glyph glyph-name="uniF0DC" unicode="&#xf0dc;" 
d="M177 389h670l-335 402zM847 187h-670l335 -402z" />
    <glyph glyph-name="uniF0DD" unicode="&#xf0dd;" horiz-adv-x="1842" 
d="M485 425l436 -484l436 484h-872z" />
    <glyph glyph-name="uniF0DE" unicode="&#xf0de;" horiz-adv-x="1842" 
d="M475 80l465 516l465 -516h-930z" />
    <glyph glyph-name="uniF0E5" unicode="&#xf0e5;" 
d="M512 -48q-21 0 -42 2t-42 5l-197 -119v199q-78 55 -123 135t-45 171q0 80 35.5 153t95.5 125.5t143.5 83.5t174.5 31q122 0 225.5 -52.5t163.5 -143t60 -197.5t-60 -197.5t-163.5 -143t-225.5 -52.5zM512 682q-107 0 -197.5 -45t-143 -122.5t-52.5 -169.5
q0 -84 45 -156.5t123 -119.5l-2 -130l132 80q16 -4 31 -6t31.5 -3.5t32.5 -1.5q107 0 197.5 45t143 123t52.5 169q0 69 -31 131t-83.5 107.5t-125.5 72t-153 26.5zM737 289q-16 0 -29 7.5t-20.5 20.5t-7.5 28t7.5 28t20.5 20.5t29 7.5q23 0 39.5 -16.5t16.5 -39.5
t-16.5 -39.5t-39.5 -16.5zM512 289q-23 0 -39.5 16.5t-16.5 39.5q0 15 7.5 28t20.5 20.5t28 7.5q23 0 39.5 -16.5t16.5 -39.5t-16.5 -39.5t-39.5 -16.5zM287 289q-9 0 -17.5 3t-15.5 8t-12 12t-8 15.5t-3 17.5q0 12 4.5 22t12 17.5t18 12t21.5 4.5q6 0 11.5 -1t10.5 -3
t9.5 -5t8.5 -7t7 -8.5t5 -9.5t3.5 -10.5t1.5 -11.5q0 -23 -16.5 -39.5t-40.5 -16.5z" />
    <glyph glyph-name="uniF101" unicode="&#xf101;" 
d="M581 288l-413 -413l-43 43l371 370l-371 370l43 43zM460 701l-43 -43l370 -370l-370 -370l43 -43l413 413z" />
    <glyph glyph-name="uniF102" unicode="&#xf102;" 
d="M797 50q0 -7 -5 -13l-29 -28q-6 -6 -13.5 -6t-12.5 6l-225 224l-224 -224q-6 -6 -13.5 -6t-13.5 6l-28 28q-6 6 -6 13.5t6 12.5l266 267q6 5 13.5 5t12.5 -5l267 -267q5 -5 5 -13zM797 270q0 -8 -5 -13l-29 -29q-6 -6 -13.5 -6t-12.5 6l-225 225l-224 -225
q-6 -6 -13.5 -6t-13.5 6l-28 29q-6 5 -6 12.5t6 13.5l266 266q6 6 13.5 6t12.5 -6l267 -266q5 -6 5 -13z" />
    <glyph glyph-name="uniF103" unicode="&#xf103;" 
d="M797 306q0 -7 -5 -13l-267 -266q-5 -6 -12.5 -6t-13.5 6l-266 266q-6 6 -6 13.5t6 12.5l28 29q6 6 13.5 6t13.5 -6l224 -225l225 225q5 6 12.5 6t13.5 -6l29 -29q5 -5 5 -13zM797 526q0 -8 -5 -13l-267 -267q-5 -5 -12.5 -5t-13.5 5l-266 267q-6 5 -6 12.5t6 13.5l28 28
q6 6 13.5 6t13.5 -6l224 -224l225 224q5 6 12.5 6t13.5 -6l29 -28q5 -6 5 -13z" />
    <glyph glyph-name="uniF104" unicode="&#xf104;" 
d="M672 -112q-20 0 -34 14l-352 352q-7 7 -10.5 16t-3.5 18t3.5 18t10.5 16l352 352q14 14 34 14t34 -14q7 -7 10.5 -16t3.5 -18t-3.5 -18t-10.5 -16l-318 -318l318 -318q4 -4 7 -8.5t4.5 -9.5t2 -10.5t0 -11t-2 -10.5t-4.5 -9.5t-7 -8.5q-7 -7 -16 -10.5t-18 -3.5z" />
    <glyph glyph-name="uniF105" unicode="&#xf105;" 
d="M761 268l1 1t1 2q2 4 3 9t1.5 10t-0.5 10t-2.5 9.5t-4.5 9t-7 7.5l-353 334q-15 14 -34.5 13.5t-33.5 -15t-13 -34.5t15 -34l317 -299l-316 -305q-14 -13 -14.5 -33t13.5 -35q7 -7 16 -10.5t19 -3.5q19 0 33 13l350 338v1q1 1 1.5 1t0.5 1h1q2 3 6 10z" />
    <glyph glyph-name="uniF106" unicode="&#xf106;" 
d="M84 759zM107 759zM130 759zM152 759zM174 759zM197 759zM220 759zM242 759zM264 759zM287 759zM310 759zM332 759zM354 759zM377 759zM400 759zM422 759zM444 759zM467 759zM490 759zM512 759zM534 759zM557 759zM580 759zM602 759zM624 759zM647 759zM670 759zM692 759z
M714 759zM737 759zM760 759zM782 759zM804 759zM827 759zM850 759zM872 759zM894 759zM917 759zM940 759zM62 737zM62 714zM62 692zM62 669zM62 647zM62 624zM62 602zM62 579zM62 557zM62 534zM62 512zM62 489zM62 467zM62 444zM62 422zM62 399zM62 377zM62 354zM62 332z
M62 309zM62 287zM62 264zM62 242zM62 219zM62 197zM62 174zM62 152zM62 129zM62 107zM62 84zM62 62zM62 39zM62 17zM62 -6zM62 -28zM62 -51zM62 -73zM62 -96zM62 -118zM846 111q4 -4 10 -6.5t12 -2.5t11.5 2.5t10.5 6.5q9 9 9 22t-9 22l-356 352q-6 6 -14 8t-16 0t-14 -8
l-356 -352q-9 -9 -9 -22t9 -22t22 -9t22 9l334 322z" />
    <glyph glyph-name="uniF107" unicode="&#xf107;" 
d="M874 473q-6 5 -13.5 7t-15.5 0t-14 -7l-319 -307l-319 307q-5 4 -10.5 6t-11 2t-11.5 -2t-10 -6q-9 -9 -9 -21t9 -20l341 -328q9 -8 21 -8t21 8l341 328q9 8 9 20t-9 21z" />
    <glyph glyph-name="uniF108" unicode="&#xf108;" horiz-adv-x="1000" 
d="M994 647v-559q0 -34 -25 -58q-12 -13 -26.5 -19t-31.5 -6h-279q0 -19 8 -40q8 -20 16 -36q3 -5 5 -9.5t3 -7.5t1 -5q0 -14 -10 -23.5t-23 -9.5h-264q-13 0 -22.5 9.5t-9.5 23.5q0 7 8 22t16 36t8 40h-279q-34 0 -58 25q-8 8 -13.5 17t-8.5 19t-3 22v559q0 34 24.5 58
t58.5 24h822q34 0 58.5 -24t24.5 -58zM928 219v428v3l-2 4q0 1 -1 2t-2 3q-3 2 -5.5 3.5t-6.5 1.5h-822q-7 0 -12 -5q-2 -3 -3.5 -6t-1.5 -6v-428q0 -6 5 -11q3 -3 5.5 -4t6.5 -1h822h3q2 0 3.5 1t3 1.5t2.5 2.5q5 5 5 11z" />
    <glyph glyph-name="uniF10B" unicode="&#xf10b;" 
d="M711 729h-398q-23 0 -43 -11t-31.5 -30t-11.5 -41v-718q0 -7 1.5 -14.5t4 -14t6.5 -13t8.5 -11.5t10 -10t12 -8.5t13.5 -6t14.5 -4t15.5 -1.5h398q35 0 60 24.5t25 58.5v718q0 34 -25 58t-60 24v0zM398 688h227v-28h-227v28zM512 -97q-24 0 -40.5 17t-16.5 40.5t16.5 40
t40 16.5t40.5 -16.5t17 -40t-17 -40.5t-40 -17v0zM739 67h-455v552h455v-552zM739 67z" />
    <glyph glyph-name="uniF110" unicode="&#xf110;" 
d="M441 664.5q0 -29.5 21 -50.5t50.5 -21t50.5 21t21 50.5t-21 50.5t-50.5 21t-50.5 -21t-21 -50.5zM441 -89q0 -29 21 -50t50.5 -21t50.5 21t21 50.5t-21 50.5t-51 21q-19 0 -35.5 -9.5t-26 -26t-9.5 -36.5zM817 288q0 -30 21 -51t51 -21q19 0 35.5 9.5t26 26t9.5 36.5
q0 30 -21 51t-50 21q-15 0 -28 -6t-23 -15.5t-15.5 -23t-5.5 -27.5zM64 288q0 -30 21 -51t51 -21t51 21t21 51t-21 51t-51 21q-15 0 -28 -6t-22.5 -15.5t-15.5 -23t-6 -27.5zM707 554q0 -30 21 -51t50.5 -21t50.5 21t21 51t-21 51t-50.5 21t-50.5 -21t-21 -51zM174 21.5
q0 -29.5 21 -50.5t51 -21t51 21t21 51q0 19 -9.5 35.5t-26 26t-36.5 9.5q-30 0 -51 -21t-21 -50.5zM707 21.5q0 -29.5 21 -50.5t50.5 -21t50.5 21t21 51q0 19 -9.5 35.5t-26 26t-36.5 9.5q-29 0 -50 -21t-21 -50.5zM174 554q0 -30 21 -51t51 -21t51 21t21 51q0 15 -6 28
t-15.5 22.5t-22.5 15.5t-28 6q-30 0 -51 -21t-21 -51z" />
    <glyph glyph-name="uniF13E" unicode="&#xf13e;" 
d="M760 399h-399l-14 64q-19 71 12.5 131t103.5 79t130 -16.5t77 -106.5l12 -47q2 -7 7.5 -12.5t12.5 -7.5t14 0q12 3 17.5 13t2.5 21l-12 48q-16 61 -57.5 104.5t-97 58.5t-120.5 -1q-63 -17 -105 -60.5t-53.5 -99t2.5 -118.5l11 -50h-46q-47 0 -79.5 -33t-32.5 -79v-335
q0 -46 32.5 -78.5t79.5 -32.5h502q46 0 79 32.5t33 78.5v335q0 46 -33 79t-79 33zM816 -48q0 -15 -7.5 -28t-20.5 -20.5t-28 -7.5h-502q-16 0 -28.5 7.5t-20 20.5t-7.5 28v335q0 23 16.5 39.5t39.5 16.5h502q7 0 14.5 -2t13.5 -5.5t11.5 -9t9 -11.5t5.5 -13t2 -15v-335z
M509 231q-23 0 -39.5 -16t-16.5 -40q0 -32 28 -48v-91q0 -8 3.5 -14.5t10 -10t14.5 -3.5q11 0 19.5 8t8.5 20v91q12 7 20 20t8 28q0 12 -4.5 22t-12 17.5t-18 12t-21.5 4.5z" />
    <glyph glyph-name="uniF141" unicode="&#xf141;" 
d="M292 305q0 26 -12.5 47.5t-34 34t-46.5 12.5q-39 0 -66.5 -27.5t-27.5 -66t27.5 -66t66.5 -27.5q52 0 79 44q14 23 14 49zM433 305.5q0 -38.5 27.5 -66t66.5 -27.5t66 27.5t27 66t-27 66t-66 27.5t-66.5 -27.5t-27.5 -66zM761 305q0 -25 12.5 -46.5t34 -34t47 -12.5
t47 12.5t34 34t12.5 47t-12.5 47t-34 34t-46.5 12.5q-39 0 -66.5 -27.5t-27.5 -66.5z" />
    <glyph glyph-name="uniF1D6" unicode="&#xf1d6;" 
d="M538 -102h-26h-19h-7q-19 0 -25 -7q-19 -19 -52 -28.5t-76 -9.5q-55 0 -103 19q-6 3 -11.5 6.5t-9.5 6.5t-7.5 7t-5.5 7.5t-3 8t-1 9.5q0 14 10.5 24.5t34.5 20.5q14 4 19.5 10t5.5 15q0 26 -6 32q-5 6 -10 15l-12 16q-5 9 -10 14q-10 19 -32 19q-6 0 -10.5 -1.5
t-11.5 -5.5t-10 -6q-19 -18 -26 -19q-11 0 -12 46v5q0 32 12 109q20 58 64 103q13 12 13 32v12q0 29 19 58q5 4 6 8.5t1 10.5v7q0 23 3 44.5t9.5 41.5t16.5 39t23.5 37.5t30.5 35.5q74 83 192 83q19 0 37 -2t35.5 -6.5t34 -11.5t32 -16t30.5 -21t29 -26q27 -30 45 -60
t28.5 -65.5t10.5 -72.5v-7q0 -13 6 -19q19 -29 19 -58v-12q0 -26 13 -32q45 -45 64 -103q21 -65 13 -109q0 -23 -4.5 -34.5t-14.5 -16.5q-7 0 -26 19q-13 13 -32 13h-6h-6q-2 0 -4 -1t-4.5 -1.5t-4.5 -2.5l-4 -2l-3.5 -3.5t-3 -4t-2.5 -4.5q-7 -19 -32 -45q-15 -15 -7 -32
q0 -9 16 -22l3 -3q44 -20 45 -45q0 -14 -9 -24.5t-29 -20.5q-19 -9 -46 -14t-57 -5q-80 0 -128 38q7 0 -3 4zM685 -224q96 0 153 38q31 21 47.5 46t16.5 57q0 35 -19 64h9q3 0 8.5 1.5t8.5 4.5q54 18 64 96q9 67 -19 154q-4 13 -9.5 26t-12 25t-14.5 24t-16.5 23t-18.5 23
q0 42 -19 90q0 48 -11 91.5t-33.5 83.5t-57.5 75q-15 15 -31 27.5t-32.5 23t-34 19t-36 14.5t-37.5 10t-38.5 6t-40.5 2q-48 0 -91.5 -11t-83.5 -33.5t-75 -57.5q-102 -114 -102 -250q-19 -38 -19 -90v-6q-14 -11 -25.5 -25.5t-20 -30t-14 -29.5t-11.5 -30q-28 -87 -19 -154
q5 -37 22 -61.5t42 -34.5q3 0 13 -3t13 -3q-19 -29 -19 -64q0 -66 64 -103q14 -9 30.5 -16.5t35.5 -12t39 -7t42 -2.5q106 0 160 45h32q63 -45 160 -45z" />
    <glyph glyph-name="uniF1E0" unicode="&#xf1e0;" 
d="M767 202q-29 0 -56.5 -10t-49.5 -27.5t-38 -41.5l-183 105q9 18 14 37.5t5 39.5q0 23 -8 49l191 109q51 -55 125 -55q47 0 86.5 23t62.5 62.5t23 85.5q0 71 -50.5 121.5t-121.5 50.5q-46 0 -85.5 -23t-62.5 -62.5t-23 -86.5q0 -22 8 -49l-191 -109q-24 26 -56.5 40.5
t-68.5 14.5q-47 0 -86.5 -22.5t-62.5 -62t-23 -86.5q0 -71 50.5 -121t121.5 -50q56 0 103 35l-1 -1l208 -119q-2 -17 -2 -18q0 -35 13.5 -66.5t36.5 -54.5t55 -37t66 -14q47 0 86.5 23t62.5 62.5t23 86.5q0 35 -13.5 66.5t-36.5 54.5t-55 36.5t-67 13.5zM767.5 682
q42.5 0 72.5 -30t30 -72.5t-30 -73t-73 -30.5q-27 0 -51 14t-37.5 37.5t-13.5 51.5q0 43 30 73t72.5 30zM287.5 202q-42.5 0 -72.5 30t-30 73t30 73t72.5 30t72.5 -30t30 -73t-30 -73t-72.5 -30zM767 -72q-27 0 -51 14t-37.5 37.5t-13.5 51.5q0 42 30 72.5t72.5 30.5
t72.5 -30.5t30 -72.5q0 -21 -8 -40t-22 -33t-33 -22t-40 -8z" />
    <glyph glyph-name="uniF1F8" unicode="&#xf1f8;" 
d="M256 -160q-11 0 -22 3.5t-19.5 10t-15 15.5t-10 19.5t-3.5 21.5v471q0 10 4.5 18t12.5 12.5t17.5 4.5t17.5 -4.5t13 -12.5t5 -18v-16v-412q0 -8 3.5 -16t9 -14t13.5 -9.5t17 -3.5h425q9 0 17 3.5t14 9.5t9.5 14t3.5 16v428q0 10 4.5 18t12.5 12.5t17.5 4.5t17.5 -4.5
t12.5 -12.5t4.5 -18v-12v-459q0 -29 -20.5 -49.5t-49.5 -20.5h-511zM612 32q-9 0 -17.5 5t-13 13t-4.5 17v314q0 10 4.5 18t12.5 12.5t17.5 4.5t17.5 -4.5t13 -12.5t5 -18v-314q0 -14 -10.5 -24.5t-24.5 -10.5zM412 32q-9 0 -17 5t-12.5 13t-4.5 17l-1 314q0 15 10.5 25
t25 10t24.5 -10t10 -25v-314q0 -14 -10 -24.5t-25 -10.5zM99 480q-14 0 -24.5 10.5t-10.5 24.5q0 3 0.5 5.5t1.5 5.5l2 4q1 3 3 5.5t4 4.5q10 10 24 10h157v116q0 29 20.5 49.5t49.5 20.5h371q29 0 49.5 -20.5t20.5 -49.5v-116h158q14 0 24.5 -10t10.5 -25q0 -7 -3 -13.5
t-7.5 -11t-11 -7.5t-13.5 -3h-826zM362 672q-12 0 -22 -6t-15.5 -16t-5.5 -23v-77h385v77q0 19 -11.5 32t-30.5 13h-300z" />
    <glyph glyph-name="uniF1FC" unicode="&#xf1fc;" 
d="M889 652h-21v55q0 23 -16 39t-39 16h-558q-12 0 -22 -4t-17.5 -11.5t-12 -18t-4.5 -21.5v-55q-15 0 -28 -4.5t-24 -12.5t-19 -18.5t-12.5 -24t-4.5 -27.5v-112q0 -14 4.5 -27.5t12.5 -24t19 -18.5t24 -12.5t28 -4.5h270h1q11 0 20 -5.5t14.5 -15t5.5 -20.5v-129h-29
q-5 0 -9 -2t-7.5 -5t-5 -7.5t-1.5 -9.5v-338q0 -10 6.5 -17t16.5 -7h106q5 0 9 2t7.5 5t5 7.5t1.5 9.5v338q0 3 -0.5 6t-2 6t-4 5t-5 3.5t-5.5 2.5t-6 1h-30v129q0 36 -25 61.5t-61 26.5h-1h-271q-7 0 -13 2t-11 5.5t-9 8.5t-6 11.5t-2 12.5v112q0 16 12 28t29 12v-55
q0 -15 7.5 -27.5t20.5 -20t28 -7.5h558q23 0 39 16t16 39v55h21q3 0 5.5 0.5t4.5 2t4.5 3t4 3.5t2.5 4.5t1.5 5t0.5 5.5t-0.5 6t-2 5.5t-3.5 4.5l-6 4q-2 2 -5 2.5t-6 0.5zM563 -143h-58v291h58v-291zM255 542q-9 0 -9 8v157q0 8 9 8h558q8 0 8 -8v-157q0 -8 -8 -8h-558z
" />
  </font>
</defs>
</svg>
